<?xml version="1.0" encoding="UTF-8" standalone="no"?>
<!DOCTYPE svg PUBLIC "-//W3C//DTD SVG 1.1//EN"
 "http://www.w3.org/Graphics/SVG/1.1/DTD/svg11.dtd">
<!-- Generated by graphviz version 2.47.3 (20210619.1520)
 -->
<!-- Title: dependencies Pages: 1 -->
<svg width="2351pt" height="174pt"
 viewBox="0.00 0.00 2351.00 173.80" xmlns="http://www.w3.org/2000/svg" xmlns:xlink="http://www.w3.org/1999/xlink">
<g id="graph0" class="graph" transform="scale(1 1) rotate(0) translate(4 169.8)">
<title>dependencies</title>
<polygon fill="white" stroke="transparent" points="-4,4 -4,-169.8 2347,-169.8 2347,4 -4,4"/>
<text text-anchor="middle" x="1171.5" y="-8.2" font-family="sans-serif" font-size="14.00">dependencies</text>
<g id="clust1" class="cluster">
<title>cluster_MeditationModule</title>
<polygon fill="none" stroke="black" stroke-dasharray="1,5" points="8,-32.8 8,-157.8 2335,-157.8 2335,-32.8 8,-32.8"/>
</g>
<g id="clust2" class="cluster">
<title>cluster_MeditationModule_declarations</title>
<polygon fill="none" stroke="black" points="890,-40.8 890,-92.8 2327,-92.8 2327,-40.8 890,-40.8"/>
</g>
<g id="clust11" class="cluster">
<title>cluster_MeditationModule_imports</title>
<polygon fill="none" stroke="black" points="544,-40.8 544,-92.8 882,-92.8 882,-40.8 544,-40.8"/>
</g>
<g id="clust14" class="cluster">
<title>cluster_MeditationModule_providers</title>
<polygon fill="none" stroke="black" points="16,-40.8 16,-92.8 536,-92.8 536,-40.8 16,-40.8"/>
</g>
<!-- CategoriesComponent -->
<g id="node1" class="node">
<title>CategoriesComponent</title>
<polygon fill="#ffffb3" stroke="black" points="2318.7,-84.8 2177.3,-84.8 2177.3,-48.8 2318.7,-48.8 2318.7,-84.8"/>
<text text-anchor="middle" x="2248" y="-62.6" font-family="Times,serif" font-size="14.00">CategoriesComponent</text>
</g>
<!-- MeditationModule -->
<g id="node9" class="node">
<title>MeditationModule</title>
<polygon fill="#8dd3c7" stroke="black" points="1202.49,-149.8 1199.49,-153.8 1178.49,-153.8 1175.49,-149.8 1081.51,-149.8 1081.51,-113.8 1202.49,-113.8 1202.49,-149.8"/>
<text text-anchor="middle" x="1142" y="-127.6" font-family="Times,serif" font-size="14.00">MeditationModule</text>
</g>
<!-- CategoriesComponent&#45;&gt;MeditationModule -->
<g id="edge1" class="edge">
<title>CategoriesComponent&#45;&gt;MeditationModule</title>
<path fill="none" stroke="black" d="M2248,-84.89C2248,-107.93 2248,-144.8 2248,-144.8 2248,-144.8 1212.64,-144.8 1212.64,-144.8"/>
<polygon fill="black" stroke="black" points="1212.64,-141.3 1202.64,-144.8 1212.64,-148.3 1212.64,-141.3"/>
</g>
<!-- CategoryCardComponent -->
<g id="node2" class="node">
<title>CategoryCardComponent</title>
<polygon fill="#ffffb3" stroke="black" points="2158.86,-84.8 1999.14,-84.8 1999.14,-48.8 2158.86,-48.8 2158.86,-84.8"/>
<text text-anchor="middle" x="2079" y="-62.6" font-family="Times,serif" font-size="14.00">CategoryCardComponent</text>
</g>
<!-- CategoryCardComponent&#45;&gt;MeditationModule -->
<g id="edge2" class="edge">
<title>CategoryCardComponent&#45;&gt;MeditationModule</title>
<path fill="none" stroke="black" d="M2079,-84.84C2079,-106.46 2079,-139.8 2079,-139.8 2079,-139.8 1212.76,-139.8 1212.76,-139.8"/>
<polygon fill="black" stroke="black" points="1212.76,-136.3 1202.76,-139.8 1212.76,-143.3 1212.76,-136.3"/>
</g>
<!-- MediaContentComponent -->
<g id="node3" class="node">
<title>MediaContentComponent</title>
<polygon fill="#ffffb3" stroke="black" points="1980.93,-84.8 1819.07,-84.8 1819.07,-48.8 1980.93,-48.8 1980.93,-84.8"/>
<text text-anchor="middle" x="1900" y="-62.6" font-family="Times,serif" font-size="14.00">MediaContentComponent</text>
</g>
<!-- MediaContentComponent&#45;&gt;MeditationModule -->
<g id="edge3" class="edge">
<title>MediaContentComponent&#45;&gt;MeditationModule</title>
<path fill="none" stroke="black" d="M1900,-85.02C1900,-105.17 1900,-134.8 1900,-134.8 1900,-134.8 1212.75,-134.8 1212.75,-134.8"/>
<polygon fill="black" stroke="black" points="1212.75,-131.3 1202.75,-134.8 1212.75,-138.3 1212.75,-131.3"/>
</g>
<!-- MeditationHeaderComponent -->
<g id="node4" class="node">
<title>MeditationHeaderComponent</title>
<polygon fill="#ffffb3" stroke="black" points="1801.68,-84.8 1618.32,-84.8 1618.32,-48.8 1801.68,-48.8 1801.68,-84.8"/>
<text text-anchor="middle" x="1710" y="-62.6" font-family="Times,serif" font-size="14.00">MeditationHeaderComponent</text>
</g>
<!-- MeditationHeaderComponent&#45;&gt;MeditationModule -->
<g id="edge4" class="edge">
<title>MeditationHeaderComponent&#45;&gt;MeditationModule</title>
<path fill="none" stroke="black" d="M1710,-85.02C1710,-103.63 1710,-129.8 1710,-129.8 1710,-129.8 1212.52,-129.8 1212.52,-129.8"/>
<polygon fill="black" stroke="black" points="1212.52,-126.3 1202.52,-129.8 1212.52,-133.3 1212.52,-126.3"/>
</g>
<!-- MeditationItemComponent -->
<g id="node5" class="node">
<title>MeditationItemComponent</title>
<polygon fill="#ffffb3" stroke="black" points="1600.43,-84.8 1431.57,-84.8 1431.57,-48.8 1600.43,-48.8 1600.43,-84.8"/>
<text text-anchor="middle" x="1516" y="-62.6" font-family="Times,serif" font-size="14.00">MeditationItemComponent</text>
</g>
<!-- MeditationItemComponent&#45;&gt;MeditationModule -->
<g id="edge5" class="edge">
<title>MeditationItemComponent&#45;&gt;MeditationModule</title>
<path fill="none" stroke="black" d="M1516,-84.83C1516,-101.86 1516,-124.8 1516,-124.8 1516,-124.8 1212.51,-124.8 1212.51,-124.8"/>
<polygon fill="black" stroke="black" points="1212.51,-121.3 1202.51,-124.8 1212.51,-128.3 1212.51,-121.3"/>
</g>
<!-- MeditationModalComponent -->
<g id="node6" class="node">
<title>MeditationModalComponent</title>
<polygon fill="#ffffb3" stroke="black" points="1413.82,-84.8 1234.18,-84.8 1234.18,-48.8 1413.82,-48.8 1413.82,-84.8"/>
<text text-anchor="middle" x="1324" y="-62.6" font-family="Times,serif" font-size="14.00">MeditationModalComponent</text>
</g>
<!-- MeditationModalComponent&#45;&gt;MeditationModule -->
<g id="edge6" class="edge">
<title>MeditationModalComponent&#45;&gt;MeditationModule</title>
<path fill="none" stroke="black" d="M1324,-85.04C1324,-100.37 1324,-119.8 1324,-119.8 1324,-119.8 1212.6,-119.8 1212.6,-119.8"/>
<polygon fill="black" stroke="black" points="1212.6,-116.3 1202.6,-119.8 1212.6,-123.3 1212.6,-116.3"/>
</g>
<!-- MeditationsComponent -->
<g id="node7" class="node">
<title>MeditationsComponent</title>
<polygon fill="#ffffb3" stroke="black" points="1216.21,-84.8 1067.79,-84.8 1067.79,-48.8 1216.21,-48.8 1216.21,-84.8"/>
<text text-anchor="middle" x="1142" y="-62.6" font-family="Times,serif" font-size="14.00">MeditationsComponent</text>
</g>
<!-- MeditationsComponent&#45;&gt;MeditationModule -->
<g id="edge7" class="edge">
<title>MeditationsComponent&#45;&gt;MeditationModule</title>
<path fill="none" stroke="black" d="M1142,-84.91C1142,-84.91 1142,-103.79 1142,-103.79"/>
<polygon fill="black" stroke="black" points="1138.5,-103.79 1142,-113.79 1145.5,-103.79 1138.5,-103.79"/>
</g>
<!-- TextContentComponent -->
<g id="node8" class="node">
<title>TextContentComponent</title>
<polygon fill="#ffffb3" stroke="black" points="1049.82,-84.8 898.18,-84.8 898.18,-48.8 1049.82,-48.8 1049.82,-84.8"/>
<text text-anchor="middle" x="974" y="-62.6" font-family="Times,serif" font-size="14.00">TextContentComponent</text>
</g>
<!-- TextContentComponent&#45;&gt;MeditationModule -->
<g id="edge8" class="edge">
<title>TextContentComponent&#45;&gt;MeditationModule</title>
<path fill="none" stroke="black" d="M974,-85.04C974,-100.37 974,-119.8 974,-119.8 974,-119.8 1071.35,-119.8 1071.35,-119.8"/>
<polygon fill="black" stroke="black" points="1071.35,-123.3 1081.35,-119.8 1071.35,-116.3 1071.35,-123.3"/>
</g>
<!-- ButtonsSelectModule -->
<g id="node10" class="node">
<title>ButtonsSelectModule</title>
<polygon fill="#8dd3c7" stroke="black" points="873.82,-84.8 870.82,-88.8 849.82,-88.8 846.82,-84.8 736.18,-84.8 736.18,-48.8 873.82,-48.8 873.82,-84.8"/>
<text text-anchor="middle" x="805" y="-62.6" font-family="Times,serif" font-size="14.00">ButtonsSelectModule</text>
</g>
<!-- ButtonsSelectModule&#45;&gt;MeditationModule -->
<g id="edge9" class="edge">
<title>ButtonsSelectModule&#45;&gt;MeditationModule</title>
<path fill="none" stroke="black" d="M805,-84.83C805,-101.86 805,-124.8 805,-124.8 805,-124.8 1071.36,-124.8 1071.36,-124.8"/>
<polygon fill="black" stroke="black" points="1071.36,-128.3 1081.36,-124.8 1071.36,-121.3 1071.36,-128.3"/>
</g>
<!-- MeditationRoutingModule -->
<g id="node11" class="node">
<title>MeditationRoutingModule</title>
<polygon fill="#8dd3c7" stroke="black" points="718.1,-84.8 715.1,-88.8 694.1,-88.8 691.1,-84.8 551.9,-84.8 551.9,-48.8 718.1,-48.8 718.1,-84.8"/>
<text text-anchor="middle" x="635" y="-62.6" font-family="Times,serif" font-size="14.00">MeditationRoutingModule</text>
</g>
<!-- MeditationRoutingModule&#45;&gt;MeditationModule -->
<g id="edge10" class="edge">
<title>MeditationRoutingModule&#45;&gt;MeditationModule</title>
<path fill="none" stroke="black" d="M635,-85.02C635,-103.63 635,-129.8 635,-129.8 635,-129.8 1071.35,-129.8 1071.35,-129.8"/>
<polygon fill="black" stroke="black" points="1071.35,-133.3 1081.35,-129.8 1071.35,-126.3 1071.35,-133.3"/>
</g>
<!-- AudioService -->
<g id="node12" class="node">
<title>AudioService</title>
<ellipse fill="#fdb462" stroke="black" cx="464" cy="-66.8" rx="64.26" ry="18"/>
<text text-anchor="middle" x="464" y="-62.6" font-family="Times,serif" font-size="14.00">AudioService</text>
</g>
<!-- AudioService&#45;&gt;MeditationModule -->
<g id="edge11" class="edge">
<title>AudioService&#45;&gt;MeditationModule</title>
<path fill="none" stroke="black" d="M464,-85.02C464,-105.17 464,-134.8 464,-134.8 464,-134.8 1071.24,-134.8 1071.24,-134.8"/>
<polygon fill="black" stroke="black" points="1071.24,-138.3 1081.24,-134.8 1071.24,-131.3 1071.24,-138.3"/>
</g>
<!-- AudioStateService -->
<g id="node13" class="node">
<title>AudioStateService</title>
<ellipse fill="#fdb462" stroke="black" cx="298" cy="-66.8" rx="83.38" ry="18"/>
<text text-anchor="middle" x="298" y="-62.6" font-family="Times,serif" font-size="14.00">AudioStateService</text>
</g>
<!-- AudioStateService&#45;&gt;MeditationModule -->
<g id="edge12" class="edge">
<title>AudioStateService&#45;&gt;MeditationModule</title>
<path fill="none" stroke="black" d="M298,-84.84C298,-106.46 298,-139.8 298,-139.8 298,-139.8 1071.3,-139.8 1071.3,-139.8"/>
<polygon fill="black" stroke="black" points="1071.3,-143.3 1081.3,-139.8 1071.3,-136.3 1071.3,-143.3"/>
</g>
<!-- MeditationsService -->
<g id="node14" class="node">
<title>MeditationsService</title>
<ellipse fill="#fdb462" stroke="black" cx="110" cy="-66.8" rx="86.25" ry="18"/>
<text text-anchor="middle" x="110" y="-62.6" font-family="Times,serif" font-size="14.00">MeditationsService</text>
</g>
<!-- MeditationsService&#45;&gt;MeditationModule -->
<g id="edge13" class="edge">
<title>MeditationsService&#45;&gt;MeditationModule</title>
<path fill="none" stroke="black" d="M110,-84.89C110,-107.93 110,-144.8 110,-144.8 110,-144.8 1071.3,-144.8 1071.3,-144.8"/>
<polygon fill="black" stroke="black" points="1071.3,-148.3 1081.3,-144.8 1071.3,-141.3 1071.3,-148.3"/>
</g>
</g>
</svg>
