<?xml version="1.0" encoding="UTF-8" standalone="no"?>
<!DOCTYPE svg PUBLIC "-//W3C//DTD SVG 1.1//EN"
 "http://www.w3.org/Graphics/SVG/1.1/DTD/svg11.dtd">
<!-- Generated by graphviz version 2.47.3 (20210619.1520)
 -->
<!-- Title: dependencies Pages: 1 -->
<svg width="514pt" height="174pt"
 viewBox="0.00 0.00 514.00 173.80" xmlns="http://www.w3.org/2000/svg" xmlns:xlink="http://www.w3.org/1999/xlink">
<g id="graph0" class="graph" transform="scale(1 1) rotate(0) translate(4 169.8)">
<title>dependencies</title>
<polygon fill="white" stroke="transparent" points="-4,4 -4,-169.8 510,-169.8 510,4 -4,4"/>
<text text-anchor="middle" x="253" y="-8.2" font-family="sans-serif" font-size="14.00">dependencies</text>
<g id="clust1" class="cluster">
<title>cluster_HomeModule</title>
<polygon fill="none" stroke="black" stroke-dasharray="1,5" points="8,-32.8 8,-157.8 498,-157.8 498,-32.8 8,-32.8"/>
</g>
<g id="clust7" class="cluster">
<title>cluster_HomeModule_providers</title>
<polygon fill="none" stroke="black" points="346,-40.8 346,-92.8 490,-92.8 490,-40.8 346,-40.8"/>
</g>
<g id="clust4" class="cluster">
<title>cluster_HomeModule_imports</title>
<polygon fill="none" stroke="black" points="156,-40.8 156,-92.8 338,-92.8 338,-40.8 156,-40.8"/>
</g>
<g id="clust2" class="cluster">
<title>cluster_HomeModule_declarations</title>
<polygon fill="none" stroke="black" points="16,-40.8 16,-92.8 148,-92.8 148,-40.8 16,-40.8"/>
</g>
<!-- HomeComponent -->
<g id="node1" class="node">
<title>HomeComponent</title>
<polygon fill="#ffffb3" stroke="black" points="139.55,-84.8 24.45,-84.8 24.45,-48.8 139.55,-48.8 139.55,-84.8"/>
<text text-anchor="middle" x="82" y="-62.6" font-family="Times,serif" font-size="14.00">HomeComponent</text>
</g>
<!-- HomeModule -->
<g id="node2" class="node">
<title>HomeModule</title>
<polygon fill="#8dd3c7" stroke="black" points="293.76,-149.8 290.76,-153.8 269.76,-153.8 266.76,-149.8 200.24,-149.8 200.24,-113.8 293.76,-113.8 293.76,-149.8"/>
<text text-anchor="middle" x="247" y="-127.6" font-family="Times,serif" font-size="14.00">HomeModule</text>
</g>
<!-- HomeComponent&#45;&gt;HomeModule -->
<g id="edge1" class="edge">
<title>HomeComponent&#45;&gt;HomeModule</title>
<path fill="none" stroke="black" d="M82,-84.91C82,-104.14 82,-131.8 82,-131.8 82,-131.8 190.16,-131.8 190.16,-131.8"/>
<polygon fill="black" stroke="black" points="190.16,-135.3 200.16,-131.8 190.16,-128.3 190.16,-135.3"/>
</g>
<!-- HomePageRoutingModule -->
<g id="node3" class="node">
<title>HomePageRoutingModule</title>
<polygon fill="#8dd3c7" stroke="black" points="330.09,-84.8 327.09,-88.8 306.09,-88.8 303.09,-84.8 163.91,-84.8 163.91,-48.8 330.09,-48.8 330.09,-84.8"/>
<text text-anchor="middle" x="247" y="-62.6" font-family="Times,serif" font-size="14.00">HomePageRoutingModule</text>
</g>
<!-- HomePageRoutingModule&#45;&gt;HomeModule -->
<g id="edge2" class="edge">
<title>HomePageRoutingModule&#45;&gt;HomeModule</title>
<path fill="none" stroke="black" d="M247,-84.91C247,-84.91 247,-103.79 247,-103.79"/>
<polygon fill="black" stroke="black" points="243.5,-103.79 247,-113.79 250.5,-103.79 243.5,-103.79"/>
</g>
<!-- QuoteService -->
<g id="node4" class="node">
<title>QuoteService</title>
<ellipse fill="#fdb462" stroke="black" cx="418" cy="-66.8" rx="63.68" ry="18"/>
<text text-anchor="middle" x="418" y="-62.6" font-family="Times,serif" font-size="14.00">QuoteService</text>
</g>
<!-- QuoteService&#45;&gt;HomeModule -->
<g id="edge3" class="edge">
<title>QuoteService&#45;&gt;HomeModule</title>
<path fill="none" stroke="black" d="M418,-84.91C418,-104.14 418,-131.8 418,-131.8 418,-131.8 304.18,-131.8 304.18,-131.8"/>
<polygon fill="black" stroke="black" points="304.18,-128.3 294.18,-131.8 304.18,-135.3 304.18,-128.3"/>
</g>
</g>
</svg>
